<svg width="24" height="24" viewBox="0 0 24 24" fill="none" xmlns="http://www.w3.org/2000/svg">
<path d="M14.005 2.00299C15.8349 2.00212 17.6099 2.62866 19.0338 3.77812C20.4577 4.92758 21.4445 6.53047 21.8296 8.31946C22.2147 10.1085 21.9749 11.9754 21.15 13.6089C20.3252 15.2425 18.9652 16.5438 17.297 17.296C16.7637 18.4749 15.9525 19.5069 14.9328 20.3034C13.9132 21.1 12.7155 21.6373 11.4426 21.8693C10.1697 22.1014 8.85947 22.0212 7.62433 21.6357C6.3892 21.2502 5.26601 20.5708 4.35108 19.6559C3.43616 18.741 2.7568 17.6178 2.37128 16.3826C1.98577 15.1475 1.90559 13.8373 2.13763 12.5644C2.36967 11.2914 2.907 10.0938 3.70354 9.07413C4.50008 8.05447 5.53206 7.24323 6.71097 6.70999C7.34511 5.30688 8.37056 4.11649 9.66431 3.2816C10.9581 2.4467 12.4652 2.00275 14.005 2.00299ZM11.005 9.00299H9.00497V10.003C8.35508 10.0014 7.73012 10.253 7.26255 10.7043C6.79498 11.1557 6.52156 11.7714 6.50023 12.4209C6.47891 13.0705 6.71136 13.7028 7.14831 14.1839C7.58526 14.6649 8.19238 14.9569 8.84097 14.998L9.00497 15.003H11.005L11.095 15.011C11.2103 15.0319 11.3145 15.0926 11.3896 15.1825C11.4647 15.2724 11.5059 15.3858 11.5059 15.503C11.5059 15.6201 11.4647 15.7336 11.3896 15.8235C11.3145 15.9134 11.2103 15.9741 11.095 15.995L11.005 16.003H7.00497V18.003H9.00497V19.003H11.005V18.003C11.6549 18.0046 12.2798 17.753 12.7474 17.3017C13.215 16.8503 13.4884 16.2346 13.5097 15.585C13.531 14.9355 13.2986 14.3032 12.8616 13.8221C12.4247 13.341 11.8176 13.049 11.169 13.008L11.005 13.003H9.00497L8.91497 12.995C8.79969 12.9741 8.69539 12.9134 8.62029 12.8235C8.54519 12.7336 8.50405 12.6201 8.50405 12.503C8.50405 12.3858 8.54519 12.2724 8.62029 12.1825C8.69539 12.0926 8.79969 12.0319 8.91497 12.011L9.00497 12.003H13.005V10.003H11.005V9.00299ZM14.005 4.00299C13.1575 4.00186 12.3194 4.18072 11.5462 4.52775C10.7731 4.87477 10.0824 5.38204 9.51997 6.01599C10.6502 5.94738 11.7822 6.11949 12.841 6.52094C13.8998 6.92239 14.8613 7.54403 15.6619 8.34477C16.4626 9.14551 17.0841 10.1071 17.4854 11.1659C17.8867 12.2248 18.0587 13.3567 17.99 14.487C18.8992 13.6786 19.5412 12.6129 19.8308 11.4313C20.1204 10.2497 20.044 9.00791 19.6116 7.87071C19.1792 6.73352 18.4114 5.75463 17.4099 5.06387C16.4084 4.37312 15.2206 4.00313 14.004 4.00299H14.005Z" fill="#CA5B00"/>
</svg>
