<svg width="32" height="32" viewBox="0 0 32 32" fill="none" xmlns="http://www.w3.org/2000/svg">
<path d="M12.7858 2C13.4593 2 13.796 2 14.0052 2.21122C14.2144 2.42244 14.2144 2.7624 14.2144 3.44231L14.2144 24.3558C14.2144 27.0754 14.2144 28.4352 13.3776 29.2801C12.5407 30.125 11.1939 30.125 8.50017 30.125H4.92878C4.25535 30.125 3.91863 30.125 3.70943 29.9138C3.50022 29.7026 3.50022 29.3626 3.50022 28.6827L3.50022 7.76923C3.50022 5.04959 3.50022 3.68977 4.33705 2.84488C5.17388 2 6.52074 2 9.21445 2L12.7858 2Z" fill="url(#paint0_linear_5_2018)"/>
<path d="M15.643 3.44231C15.643 2.7624 15.643 2.42244 15.8522 2.21122C16.0614 2 16.3981 2 17.0715 2H27.0714C27.7449 2 28.0816 2 28.2908 2.21122C28.5 2.42244 28.5 2.7624 28.5 3.44231V6.32692C28.5 9.04656 28.5 10.4064 27.6632 11.2513C26.8263 12.0962 25.4795 12.0962 22.7858 12.0962H17.0715C16.3981 12.0962 16.0614 12.0962 15.8522 11.8849C15.643 11.6737 15.643 11.3338 15.643 10.6538V3.44231Z" fill="url(#paint1_linear_5_2018)"/>
<path d="M4.96453 15.017C3.50008 16.4956 3.50008 18.8752 3.50008 23.6346C3.4999 23.8692 3.50008 24.1095 3.50008 24.3558V30.125L8.50017 30.125C11.1939 30.125 12.5407 30.125 13.3776 29.2801C14.2144 28.4352 14.2144 27.0754 14.2144 24.3558L14.2143 23.6346H16.8928C20.4039 23.6346 22.1595 23.6346 23.4206 22.7839C23.9665 22.4156 24.4353 21.9423 24.8001 21.3911C25.6427 20.1179 25.6427 18.3454 25.6427 14.8005C25.6427 14.2941 25.6427 14.0409 25.5223 13.859C25.4702 13.7802 25.4033 13.7126 25.3253 13.66C25.1451 13.5385 24.8943 13.5385 24.3927 13.5385L14.2143 13.5385C9.50026 13.5385 6.42898 13.5385 4.96453 15.017Z" fill="url(#paint2_linear_5_2018)"/>
<defs>
<linearGradient id="paint0_linear_5_2018" x1="16.8331" y1="4.88462" x2="20.7136" y2="32.959" gradientUnits="userSpaceOnUse">
<stop stop-color="white"/>
<stop offset="1" stop-color="#E5717F"/>
</linearGradient>
<linearGradient id="paint1_linear_5_2018" x1="16.8331" y1="4.88462" x2="20.7136" y2="32.959" gradientUnits="userSpaceOnUse">
<stop stop-color="white"/>
<stop offset="1" stop-color="#E5717F"/>
</linearGradient>
<linearGradient id="paint2_linear_5_2018" x1="6.71434" y1="12.4567" x2="15.061" y2="31.1476" gradientUnits="userSpaceOnUse">
<stop stop-color="#FFECEC"/>
<stop offset="0.331684" stop-color="white"/>
<stop offset="1" stop-color="white"/>
</linearGradient>
</defs>
</svg>
