<svg width="61" height="14" viewBox="0 0 61 14" fill="none" xmlns="http://www.w3.org/2000/svg">
<path d="M2.28125 13H0.0390625V1.79688H7.88281V4.03906H2.28125V6.28125H5.64062V8.52344H2.28125V13ZM11.3441 2.35938C11.3441 2.55729 11.3051 2.74219 11.2269 2.91406C11.154 3.08594 11.0525 3.23698 10.9222 3.36719C10.792 3.49219 10.6384 3.59375 10.4613 3.67188C10.2894 3.74479 10.1045 3.78125 9.90662 3.78125C9.70871 3.78125 9.52121 3.74479 9.34412 3.67188C9.17225 3.59375 9.02121 3.49219 8.891 3.36719C8.766 3.23698 8.66444 3.08594 8.58631 2.91406C8.5134 2.74219 8.47694 2.55729 8.47694 2.35938C8.47694 2.16667 8.5134 1.98438 8.58631 1.8125C8.66444 1.63542 8.766 1.48438 8.891 1.35938C9.02121 1.22917 9.17225 1.1276 9.34412 1.05469C9.52121 0.976562 9.70871 0.9375 9.90662 0.9375C10.1045 0.9375 10.2894 0.976562 10.4613 1.05469C10.6384 1.1276 10.792 1.22917 10.9222 1.35938C11.0525 1.48438 11.154 1.63542 11.2269 1.8125C11.3051 1.98438 11.3441 2.16667 11.3441 2.35938ZM10.9769 13H8.8285V4.63281H10.9769V13ZM14.7586 13H12.6257V4.63281H13.1414L13.8445 5.44531C14.1882 5.13281 14.5763 4.89323 15.0086 4.72656C15.4461 4.55469 15.9018 4.46875 16.3757 4.46875C16.8862 4.46875 17.3679 4.56771 17.8211 4.76562C18.2742 4.95833 18.67 5.22656 19.0086 5.57031C19.3471 5.90885 19.6127 6.30729 19.8054 6.76562C20.0034 7.21875 20.1023 7.70312 20.1023 8.21875V13H17.9695V8.21875C17.9695 8 17.9278 7.79427 17.8445 7.60156C17.7612 7.40365 17.6466 7.23177 17.5007 7.08594C17.3549 6.9401 17.1856 6.82552 16.9929 6.74219C16.8002 6.65885 16.5945 6.61719 16.3757 6.61719C16.1518 6.61719 15.9409 6.65885 15.7429 6.74219C15.545 6.82552 15.3731 6.9401 15.2273 7.08594C15.0815 7.23177 14.9669 7.40365 14.8836 7.60156C14.8002 7.79427 14.7586 8 14.7586 8.21875V13ZM34.0484 13H26.3687V1.79688H34.0484V4.03906H28.6109V6.28125H32.2906V8.52344H28.6109V10.7578H34.0484V13ZM43.2753 13H42.7597L41.9316 11.8516C41.7284 12.0339 41.5123 12.2057 41.2831 12.3672C41.0592 12.5234 40.8222 12.6615 40.5722 12.7812C40.3222 12.8958 40.0644 12.987 39.7988 13.0547C39.5383 13.1224 39.2727 13.1562 39.0019 13.1562C38.4133 13.1562 37.8586 13.0573 37.3378 12.8594C36.8222 12.6615 36.3691 12.375 35.9784 12C35.593 11.6198 35.2883 11.1562 35.0644 10.6094C34.8404 10.0625 34.7284 9.4401 34.7284 8.74219C34.7284 8.09115 34.8404 7.49479 35.0644 6.95312C35.2883 6.40625 35.593 5.9375 35.9784 5.54688C36.3691 5.15625 36.8222 4.85417 37.3378 4.64062C37.8586 4.42188 38.4133 4.3125 39.0019 4.3125C39.2727 4.3125 39.5409 4.34635 39.8066 4.41406C40.0722 4.48177 40.33 4.57552 40.58 4.69531C40.83 4.8151 41.067 4.95573 41.2909 5.11719C41.5201 5.27865 41.7336 5.45312 41.9316 5.64062L42.7597 4.64844H43.2753V13ZM41.1269 8.74219C41.1269 8.45052 41.0696 8.16927 40.955 7.89844C40.8456 7.6224 40.6946 7.38021 40.5019 7.17188C40.3092 6.95833 40.0826 6.78906 39.8222 6.66406C39.567 6.53385 39.2935 6.46875 39.0019 6.46875C38.7102 6.46875 38.4342 6.51823 38.1738 6.61719C37.9185 6.71615 37.6946 6.86198 37.5019 7.05469C37.3144 7.2474 37.1659 7.48698 37.0566 7.77344C36.9472 8.05469 36.8925 8.3776 36.8925 8.74219C36.8925 9.10677 36.9472 9.43229 37.0566 9.71875C37.1659 10 37.3144 10.237 37.5019 10.4297C37.6946 10.6224 37.9185 10.7682 38.1738 10.8672C38.4342 10.9661 38.7102 11.0156 39.0019 11.0156C39.2935 11.0156 39.567 10.9531 39.8222 10.8281C40.0826 10.6979 40.3092 10.5286 40.5019 10.3203C40.6946 10.1068 40.8456 9.86458 40.955 9.59375C41.0696 9.31771 41.1269 9.03385 41.1269 8.74219ZM49.5179 13H44.6429V10.875H49.5179C49.6637 10.875 49.7887 10.8229 49.8929 10.7188C49.997 10.6146 50.0491 10.4896 50.0491 10.3438C50.0491 10.1927 49.997 10.0938 49.8929 10.0469C49.7887 10 49.6637 9.97656 49.5179 9.97656H47.2991C46.9293 9.97656 46.583 9.90625 46.2601 9.76562C45.9371 9.625 45.6559 9.4349 45.4163 9.19531C45.1767 8.95052 44.9866 8.66667 44.846 8.34375C44.7106 8.02083 44.6429 7.67448 44.6429 7.30469C44.6429 6.9349 44.7106 6.58854 44.846 6.26562C44.9866 5.94271 45.1767 5.66146 45.4163 5.42188C45.6559 5.18229 45.9371 4.99479 46.2601 4.85938C46.583 4.71875 46.9293 4.64844 47.2991 4.64844H51.6194V6.77344H47.2991C47.1533 6.77344 47.0283 6.82552 46.9241 6.92969C46.82 7.03385 46.7679 7.15885 46.7679 7.30469C46.7679 7.45573 46.82 7.58594 46.9241 7.69531C47.0283 7.79948 47.1533 7.85156 47.2991 7.85156H49.5179C49.8825 7.85156 50.2262 7.91406 50.5491 8.03906C50.872 8.15885 51.1533 8.32812 51.3929 8.54688C51.6325 8.76562 51.8226 9.02865 51.9632 9.33594C52.1038 9.64323 52.1741 9.97917 52.1741 10.3438C52.1741 10.7135 52.1038 11.0599 51.9632 11.3828C51.8226 11.7005 51.6325 11.9818 51.3929 12.2266C51.1533 12.4661 50.872 12.6562 50.5491 12.7969C50.2262 12.9323 49.8825 13 49.5179 13ZM56.6589 10.9531C56.7422 10.9792 56.8255 10.9974 56.9089 11.0078C56.9922 11.013 57.0755 11.0156 57.1589 11.0156C57.3672 11.0156 57.5677 10.987 57.7604 10.9297C57.9531 10.8724 58.1328 10.7917 58.2995 10.6875C58.4714 10.5781 58.6224 10.4479 58.7526 10.2969C58.888 10.1406 58.9974 9.96875 59.0807 9.78125L60.6432 11.3516C60.4453 11.6328 60.2162 11.8854 59.9557 12.1094C59.7005 12.3333 59.4219 12.5234 59.1198 12.6797C58.8229 12.8359 58.5078 12.9531 58.1745 13.0312C57.8464 13.1146 57.5078 13.1562 57.1589 13.1562C56.5703 13.1562 56.0156 13.0469 55.4948 12.8281C54.9792 12.6094 54.5261 12.3047 54.1354 11.9141C53.75 11.5234 53.4453 11.0599 53.2214 10.5234C52.9974 9.98177 52.8854 9.38802 52.8854 8.74219C52.8854 8.08073 52.9974 7.47656 53.2214 6.92969C53.4453 6.38281 53.75 5.91667 54.1354 5.53125C54.5261 5.14583 54.9792 4.84635 55.4948 4.63281C56.0156 4.41927 56.5703 4.3125 57.1589 4.3125C57.5078 4.3125 57.849 4.35417 58.1823 4.4375C58.5156 4.52083 58.8307 4.64062 59.1276 4.79688C59.4297 4.95312 59.711 5.14583 59.9714 5.375C60.2318 5.59896 60.461 5.85156 60.6589 6.13281L56.6589 10.9531ZM57.7526 6.55469C57.6537 6.51823 57.5547 6.49479 57.4557 6.48438C57.362 6.47396 57.263 6.46875 57.1589 6.46875C56.8672 6.46875 56.5912 6.52344 56.3307 6.63281C56.0755 6.73698 55.8516 6.88802 55.6589 7.08594C55.4714 7.28385 55.3229 7.52344 55.2136 7.80469C55.1042 8.08073 55.0495 8.39323 55.0495 8.74219C55.0495 8.82031 55.0521 8.90885 55.0573 9.00781C55.0677 9.10677 55.0807 9.20833 55.0964 9.3125C55.1172 9.41146 55.1406 9.50781 55.1667 9.60156C55.1927 9.69531 55.2266 9.77865 55.2682 9.85156L57.7526 6.55469Z" fill="white"/>
</svg>
