<svg width="48" height="53" viewBox="0 0 48 53" fill="none" xmlns="http://www.w3.org/2000/svg">
<path d="M17.9735 0.164063C19.2361 0.164063 19.8675 0.164063 20.2597 0.560102C20.652 0.956142 20.652 1.59356 20.652 2.86839L20.652 42.0811C20.652 47.1805 20.652 49.7301 19.0829 51.3143C17.5139 52.8984 14.9885 52.8984 9.93782 52.8984H3.24145C1.97878 52.8984 1.34744 52.8984 0.955173 52.5024C0.562909 52.1064 0.562909 51.4689 0.562909 50.1941L0.56291 10.9814C0.562911 5.88204 0.562911 3.33238 2.13197 1.74822C3.70102 0.164062 6.22638 0.164062 11.2771 0.164063L17.9735 0.164063Z" fill="url(#paint0_linear_6_39)"/>
<path d="M23.3306 2.86839C23.3306 1.59356 23.3306 0.956141 23.7229 0.560102C24.1151 0.164062 24.7465 0.164063 26.0091 0.164063H44.759C46.0216 0.164063 46.653 0.164062 47.0452 0.560102C47.4375 0.956141 47.4375 1.59356 47.4375 2.86839V8.27704C47.4375 13.3764 47.4375 15.926 45.8684 17.5102C44.2994 19.0944 41.774 19.0944 36.7233 19.0944H26.0091C24.7465 19.0944 24.1151 19.0944 23.7229 18.6983C23.3306 18.3023 23.3306 17.6649 23.3306 16.39V2.86839Z" fill="url(#paint1_linear_6_39)"/>
<path d="M3.30849 24.571C0.562647 27.3432 0.562647 31.8051 0.562647 40.729C0.562316 41.1688 0.562647 41.6194 0.562647 42.0811V52.8984L9.93782 52.8984C14.9885 52.8984 17.5139 52.8984 19.0829 51.3143C20.652 49.7301 20.652 47.1805 20.652 42.0811L20.6517 40.729H25.674C32.2574 40.729 35.549 40.729 37.9136 39.1338C38.9373 38.4432 39.8162 37.5559 40.5001 36.5224C42.0801 34.135 42.0801 30.8117 42.0801 24.165C42.0801 23.2154 42.0801 22.7407 41.8544 22.3996C41.7567 22.252 41.6311 22.1252 41.4849 22.0266C41.1471 21.7987 40.6769 21.7987 39.7364 21.7987L20.6517 21.7987C11.813 21.7987 6.05434 21.7987 3.30849 24.571Z" fill="url(#paint2_linear_6_39)"/>
<defs>
<linearGradient id="paint0_linear_6_39" x1="25.5621" y1="5.57272" x2="32.838" y2="58.2122" gradientUnits="userSpaceOnUse">
<stop stop-color="#E12D42"/>
<stop offset="0.9999" stop-color="#73000D"/>
<stop offset="1" stop-color="#E12D42"/>
</linearGradient>
<linearGradient id="paint1_linear_6_39" x1="11.2767" y1="5.57272" x2="26.948" y2="54.1636" gradientUnits="userSpaceOnUse">
<stop stop-color="#E12D42"/>
<stop offset="0.9999" stop-color="#73000D"/>
<stop offset="1" stop-color="#E12D42"/>
</linearGradient>
<linearGradient id="paint2_linear_6_39" x1="6.58939" y1="19.7704" x2="22.2394" y2="54.8158" gradientUnits="userSpaceOnUse">
<stop stop-color="#FF4F04"/>
<stop offset="0.331684" stop-color="#FF9B04"/>
<stop offset="1" stop-color="#FEDF70"/>
</linearGradient>
</defs>
</svg>
