<svg width="31" height="32" viewBox="0 0 31 32" fill="none" xmlns="http://www.w3.org/2000/svg">
<path d="M25.8334 2.66669H5.16671C3.74587 2.66669 2.59629 3.86669 2.59629 5.33335L2.58337 29.3334L7.75004 24H25.8334C27.2542 24 28.4167 22.8 28.4167 21.3334V5.33335C28.4167 3.86669 27.2542 2.66669 25.8334 2.66669ZM21.9584 18.6667H9.04171C8.33129 18.6667 7.75004 18.0667 7.75004 17.3334C7.75004 16.6 8.33129 16 9.04171 16H21.9584C22.6688 16 23.25 16.6 23.25 17.3334C23.25 18.0667 22.6688 18.6667 21.9584 18.6667ZM21.9584 14.6667H9.04171C8.33129 14.6667 7.75004 14.0667 7.75004 13.3334C7.75004 12.6 8.33129 12 9.04171 12H21.9584C22.6688 12 23.25 12.6 23.25 13.3334C23.25 14.0667 22.6688 14.6667 21.9584 14.6667ZM21.9584 10.6667H9.04171C8.33129 10.6667 7.75004 10.0667 7.75004 9.33335C7.75004 8.60002 8.33129 8.00002 9.04171 8.00002H21.9584C22.6688 8.00002 23.25 8.60002 23.25 9.33335C23.25 10.0667 22.6688 10.6667 21.9584 10.6667Z" fill="white"/>
</svg>
